# xmcd
# Copyright (C) 1995-1998 Ti Kan
#
# Track frame offsets:
#       150
#       14720
#       29502
#       47337
#       63606
#       78239
#       95782
#       111461
#       124556
#       142239
#       154833
#       169854
#
# Disc length: 2500 seconds
#
# Revision: 0
# Processed by: cddbd v1.5.2PL0 Copyright (c) Steve Scherf et al.
# Submitted via: CD-Import v1.0
#
DISCID=aa09c20c
DTITLE=Jesh - Happy Now
DYEAR=2008
DGENRE=
TTITLE0=Boy Freaking Out
TTITLE1=Neurotic Thoughts
TTITLE2=Waiting For The Moon To Rise
TTITLE3=Are You Happy Now?
TTITLE4=Elevator
TTITLE5=In Her Room
TTITLE6=Reclaim Your Brain
TTITLE7=Welcome Aboard
TTITLE8=The Proof In The Pudding Is In The Eating
TTITLE9=Everyday Anew
TTITLE10=Elephant
TTITLE11=Nothing To Sell
EXTD=
EXTT0=
EXTT1=
EXTT2=
EXTT3=
EXTT4=
EXTT5=
EXTT6=
EXTT7=
EXTT8=
EXTT9=
EXTT10=
EXTT11=
PLAYORDER=
